<svg xmlns="http://www.w3.org/2000/svg" xmlns:xlink="http://www.w3.org/1999/xlink" version="1.1" x="0px" y="0px" width="100px" height="100px" viewBox="0 0 100 100" enable-background="new 0 0 100 100" xml:space="preserve">
<g id="Captions">
</g>
<g id="Your_Icon">
	<ellipse fill="#000000" cx="50.072" cy="91.351" rx="7.63" ry="7.648"/>
	<path fill="#000000" d="M86.606,0.886H13.263C5.857,0.886-0.146,6.89-0.146,14.3v41.231c0,7.41,6.004,13.414,13.409,13.414h31.685   l4.987,14.406l4.988-14.406h31.684c7.411,0,13.414-6.004,13.414-13.414V14.3C100.021,6.89,94.018,0.886,86.606,0.886z    M43.597,45.644H13.916v-5.862h29.682V45.644z M85.376,33.183h-71.46V27.32h71.46V33.183z M85.376,20.357h-71.46v-5.863h71.46   V20.357z"/>
</g>
</svg>